# xmcd
#
# Track frame offsets:
#	150
#	17485
#	30806
#	45111
#	60815
#	78256
#	93146
#	111063
#	127066
#	141685
#	153819
#	167957
#	188229
#	203869
#	217786
#	229757
#	247044
#	262684
#
# Disc length: 3756 seconds
#
# Revision: 1
# Processed by: cddbd v1.5.2PL0 Copyright (c) Steve Scherf et al.
# Submitted via: audiograbber 1.83.01
#
DISCID=d80eaa12
DTITLE=CDX - 490
DYEAR=2010
DGENRE=Country
TTITLE0=Toby Keith - Cryin' For Me (Wayman's Song)
TTITLE1=Joe Nichols - Gimme That Girl
TTITLE2=Danny Gokey - My Best Days Are Ahead Of Me
TTITLE3=Alan Jackson - It's Just That Way
TTITLE4=Rascal Flatts - Unstoppable
TTITLE5=Marty Raybon - Daddy Phone
TTITLE6=Bellamy Brothers - Heart Of My Heart
TTITLE7=Michelle Turley - Caroline
TTITLE8=Ken Domash - Countrified
TTITLE9=Matt Stillwell - Dirt Road Dancing
TTITLE10=Stickers - Girl In A Pickup Truck
TTITLE11=Jonmark Stone - I'm A Country Song
TTITLE12=Jeremy Crady - Missing You Already
TTITLE13=Kori Jean Olsen - She Ain't Got Jack
TTITLE14=Vince Hatfield - Shoes and Cheese
TTITLE15=Neil Hewitt - The Request
TTITLE16=Travis Rush - You'll Find Your Way
TTITLE17=Nathan Creed - Warm Love
EXTD=
EXTT0=
EXTT1=
EXTT2=
EXTT3=
EXTT4=
EXTT5=
EXTT6=
EXTT7=
EXTT8=
EXTT9=
EXTT10=
EXTT11=
EXTT12=
EXTT13=
EXTT14=
EXTT15=
EXTT16=
EXTT17=
PLAYORDER=
